<svg id="visual" viewBox="0 0 900 600" width="900" height="600" xmlns="http://www.w3.org/2000/svg" xmlns:xlink="http://www.w3.org/1999/xlink" version="1.1"><rect x="0" y="0" width="900" height="600" fill="#EAF2EF"></rect><path d="M0 406L21.5 411.5C43 417 86 428 128.8 417.5C171.7 407 214.3 375 257.2 372.5C300 370 343 397 385.8 420.2C428.7 443.3 471.3 462.7 514.2 475.7C557 488.7 600 495.3 642.8 471C685.7 446.7 728.3 391.3 771.2 364.8C814 338.3 857 340.7 878.5 341.8L900 343L900 601L878.5 601C857 601 814 601 771.2 601C728.3 601 685.7 601 642.8 601C600 601 557 601 514.2 601C471.3 601 428.7 601 385.8 601C343 601 300 601 257.2 601C214.3 601 171.7 601 128.8 601C86 601 43 601 21.5 601L0 601Z" fill="black" stroke-linecap="round" stroke-linejoin="miter"></path></svg>