<svg id="visual" viewBox="0 0 900 600" width="900" height="600" xmlns="http://www.w3.org/2000/svg" xmlns:xlink="http://www.w3.org/1999/xlink" version="1.1"><rect x="0" y="0" width="900" height="600" fill="#EAF2EF"></rect><path d="M0 384L21.5 379.2C43 374.3 86 364.7 128.8 375C171.7 385.3 214.3 415.7 257.2 415.8C300 416 343 386 385.8 382.7C428.7 379.3 471.3 402.7 514.2 415.7C557 428.7 600 431.3 642.8 422.2C685.7 413 728.3 392 771.2 384C814 376 857 381 878.5 383.5L900 386L900 601L878.5 601C857 601 814 601 771.2 601C728.3 601 685.7 601 642.8 601C600 601 557 601 514.2 601C471.3 601 428.7 601 385.8 601C343 601 300 601 257.2 601C214.3 601 171.7 601 128.8 601C86 601 43 601 21.5 601L0 601Z" fill="#f7c4a5"></path><path d="M0 454L21.5 447.5C43 441 86 428 128.8 430.7C171.7 433.3 214.3 451.7 257.2 450.3C300 449 343 428 385.8 427.3C428.7 426.7 471.3 446.3 514.2 456.3C557 466.3 600 466.7 642.8 456.3C685.7 446 728.3 425 771.2 424.5C814 424 857 444 878.5 454L900 464L900 601L878.5 601C857 601 814 601 771.2 601C728.3 601 685.7 601 642.8 601C600 601 557 601 514.2 601C471.3 601 428.7 601 385.8 601C343 601 300 601 257.2 601C214.3 601 171.7 601 128.8 601C86 601 43 601 21.5 601L0 601Z" fill="#e19e88"></path><path d="M0 502L21.5 499.8C43 497.7 86 493.3 128.8 487.2C171.7 481 214.3 473 257.2 468.2C300 463.3 343 461.7 385.8 466.7C428.7 471.7 471.3 483.3 514.2 484.3C557 485.3 600 475.7 642.8 468.7C685.7 461.7 728.3 457.3 771.2 460.7C814 464 857 475 878.5 480.5L900 486L900 601L878.5 601C857 601 814 601 771.2 601C728.3 601 685.7 601 642.8 601C600 601 557 601 514.2 601C471.3 601 428.7 601 385.8 601C343 601 300 601 257.2 601C214.3 601 171.7 601 128.8 601C86 601 43 601 21.5 601L0 601Z" fill="#ca7872"></path><path d="M0 487L21.5 494.7C43 502.3 86 517.7 128.8 520.7C171.7 523.7 214.3 514.3 257.2 509.7C300 505 343 505 385.8 502.2C428.7 499.3 471.3 493.7 514.2 490.5C557 487.3 600 486.7 642.8 495.2C685.7 503.7 728.3 521.3 771.2 530.3C814 539.3 857 539.7 878.5 539.8L900 540L900 601L878.5 601C857 601 814 601 771.2 601C728.3 601 685.7 601 642.8 601C600 601 557 601 514.2 601C471.3 601 428.7 601 385.8 601C343 601 300 601 257.2 601C214.3 601 171.7 601 128.8 601C86 601 43 601 21.5 601L0 601Z" fill="#af5362"></path><path d="M0 547L21.5 550.5C43 554 86 561 128.8 563.8C171.7 566.7 214.3 565.3 257.2 560.5C300 555.7 343 547.3 385.8 541C428.7 534.7 471.3 530.3 514.2 528.7C557 527 600 528 642.8 528.8C685.7 529.7 728.3 530.3 771.2 530.7C814 531 857 531 878.5 531L900 531L900 601L878.5 601C857 601 814 601 771.2 601C728.3 601 685.7 601 642.8 601C600 601 557 601 514.2 601C471.3 601 428.7 601 385.8 601C343 601 300 601 257.2 601C214.3 601 171.7 601 128.8 601C86 601 43 601 21.5 601L0 601Z" fill="#912f56"></path></svg>