<svg id="visual" viewBox="0 0 900 600" width="900" height="600" xmlns="http://www.w3.org/2000/svg" xmlns:xlink="http://www.w3.org/1999/xlink" version="1.1"><rect x="0" y="0" width="900" height="600" fill="#EAF2EF"></rect><path d="M0 379L15 393.7C30 408.3 60 437.7 90 430.2C120 422.7 150 378.3 180 356.3C210 334.3 240 334.7 270 357.7C300 380.7 330 426.3 360 431.8C390 437.3 420 402.7 450 383C480 363.3 510 358.7 540 349.2C570 339.7 600 325.3 630 330.2C660 335 690 359 720 364.8C750 370.7 780 358.3 810 372.2C840 386 870 426 885 446L900 466L900 601L885 601C870 601 840 601 810 601C780 601 750 601 720 601C690 601 660 601 630 601C600 601 570 601 540 601C510 601 480 601 450 601C420 601 390 601 360 601C330 601 300 601 270 601C240 601 210 601 180 601C150 601 120 601 90 601C60 601 30 601 15 601L0 601Z" fill="#EF798A" stroke-linecap="round" stroke-linejoin="miter"></path></svg>