<svg id="visual" viewBox="0 0 900 600" width="900" height="600" xmlns="http://www.w3.org/2000/svg" xmlns:xlink="http://www.w3.org/1999/xlink" version="1.1"><rect x="0" y="0" width="900" height="600" fill="#EAF2EF"></rect><path d="M0 169L21.5 159.2C43 149.3 86 129.7 128.8 150.5C171.7 171.3 214.3 232.7 257.2 233C300 233.3 343 172.7 385.8 165.8C428.7 159 471.3 206 514.2 232.2C557 258.3 600 263.7 642.8 245.3C685.7 227 728.3 185 771.2 168.8C814 152.7 857 162.3 878.5 167.2L900 172L900 601L878.5 601C857 601 814 601 771.2 601C728.3 601 685.7 601 642.8 601C600 601 557 601 514.2 601C471.3 601 428.7 601 385.8 601C343 601 300 601 257.2 601C214.3 601 171.7 601 128.8 601C86 601 43 601 21.5 601L0 601Z" fill="#f7c4a5"></path><path d="M0 309L21.5 296.2C43 283.3 86 257.7 128.8 263.2C171.7 268.7 214.3 305.3 257.2 302.7C300 300 343 258 385.8 256.5C428.7 255 471.3 294 514.2 313.8C557 333.7 600 334.3 642.8 313.5C685.7 292.7 728.3 250.3 771.2 249.2C814 248 857 288 878.5 308L900 328L900 601L878.5 601C857 601 814 601 771.2 601C728.3 601 685.7 601 642.8 601C600 601 557 601 514.2 601C471.3 601 428.7 601 385.8 601C343 601 300 601 257.2 601C214.3 601 171.7 601 128.8 601C86 601 43 601 21.5 601L0 601Z" fill="#e19e88"></path><path d="M0 405L21.5 400.8C43 396.7 86 388.3 128.8 376.2C171.7 364 214.3 348 257.2 338.2C300 328.3 343 324.7 385.8 334.7C428.7 344.7 471.3 368.3 514.2 370.2C557 372 600 352 642.8 338C685.7 324 728.3 316 771.2 322.7C814 329.3 857 350.7 878.5 361.3L900 372L900 601L878.5 601C857 601 814 601 771.2 601C728.3 601 685.7 601 642.8 601C600 601 557 601 514.2 601C471.3 601 428.7 601 385.8 601C343 601 300 601 257.2 601C214.3 601 171.7 601 128.8 601C86 601 43 601 21.5 601L0 601Z" fill="#ca7872"></path><path d="M0 374L21.5 389.5C43 405 86 436 128.8 442.2C171.7 448.3 214.3 429.7 257.2 420.5C300 411.3 343 411.7 385.8 406C428.7 400.3 471.3 388.7 514.2 382.3C557 376 600 375 642.8 392.2C685.7 409.3 728.3 444.7 771.2 462.5C814 480.3 857 480.7 878.5 480.8L900 481L900 601L878.5 601C857 601 814 601 771.2 601C728.3 601 685.7 601 642.8 601C600 601 557 601 514.2 601C471.3 601 428.7 601 385.8 601C343 601 300 601 257.2 601C214.3 601 171.7 601 128.8 601C86 601 43 601 21.5 601L0 601Z" fill="#af5362"></path><path d="M0 495L21.5 502C43 509 86 523 128.8 528.8C171.7 534.7 214.3 532.3 257.2 522.5C300 512.7 343 495.3 385.8 482.7C428.7 470 471.3 462 514.2 458.7C557 455.3 600 456.7 642.8 458.2C685.7 459.7 728.3 461.3 771.2 462C814 462.7 857 462.3 878.5 462.2L900 462L900 601L878.5 601C857 601 814 601 771.2 601C728.3 601 685.7 601 642.8 601C600 601 557 601 514.2 601C471.3 601 428.7 601 385.8 601C343 601 300 601 257.2 601C214.3 601 171.7 601 128.8 601C86 601 43 601 21.5 601L0 601Z" fill="#912f56"></path></svg>