<svg id="visual" viewBox="0 0 1000 100" width="1000" height="100" xmlns="http://www.w3.org/2000/svg" xmlns:xlink="http://www.w3.org/1999/xlink" version="1.1"><rect x="0" y="0" width="1000" height="100" fill="#EAF2EF"></rect><path d="M0 16L15.2 17.5C30.3 19 60.7 22 91 30.8C121.3 39.7 151.7 54.3 182 56.7C212.3 59 242.7 49 273 42.2C303.3 35.3 333.7 31.7 364 36C394.3 40.3 424.7 52.7 454.8 60C485 67.3 515 69.7 545.2 61.7C575.3 53.7 605.7 35.3 636 35.7C666.3 36 696.7 55 727 58.2C757.3 61.3 787.7 48.7 818 42.7C848.3 36.7 878.7 37.3 909 40C939.3 42.7 969.7 47.3 984.8 49.7L1000 52L1000 101L984.8 101C969.7 101 939.3 101 909 101C878.7 101 848.3 101 818 101C787.7 101 757.3 101 727 101C696.7 101 666.3 101 636 101C605.7 101 575.3 101 545.2 101C515 101 485 101 454.8 101C424.7 101 394.3 101 364 101C333.7 101 303.3 101 273 101C242.7 101 212.3 101 182 101C151.7 101 121.3 101 91 101C60.7 101 30.3 101 15.2 101L0 101Z" fill="#912F56" stroke-linecap="round" stroke-linejoin="miter"></path></svg>