<svg id="visual" viewBox="0 0 200 100" width="200" height="100" xmlns="http://www.w3.org/2000/svg" xmlns:xlink="http://www.w3.org/1999/xlink" version="1.1"><rect x="0" y="0" width="200" height="100" fill="#EAF2EF"></rect><path d="M0 54L4.8 53C9.7 52 19.3 50 28.8 46.7C38.3 43.3 47.7 38.7 57.2 40.7C66.7 42.7 76.3 51.3 85.8 52.3C95.3 53.3 104.7 46.7 114.2 46.2C123.7 45.7 133.3 51.3 142.8 55.2C152.3 59 161.7 61 171.2 56.7C180.7 52.3 190.3 41.7 195.2 36.3L200 31L200 101L195.2 101C190.3 101 180.7 101 171.2 101C161.7 101 152.3 101 142.8 101C133.3 101 123.7 101 114.2 101C104.7 101 95.3 101 85.8 101C76.3 101 66.7 101 57.2 101C47.7 101 38.3 101 28.8 101C19.3 101 9.7 101 4.8 101L0 101Z" fill="#912F56" stroke-linecap="round" stroke-linejoin="miter"></path></svg>