<svg id="visual" viewBox="0 0 900 600" width="900" height="600" xmlns="http://www.w3.org/2000/svg" xmlns:xlink="http://www.w3.org/1999/xlink" version="1.1"><rect x="0" y="0" width="900" height="600" fill="#EAF2EF"></rect><path d="M0 473L21.5 480.3C43 487.7 86 502.3 128.8 485.8C171.7 469.3 214.3 421.7 257.2 416.2C300 410.7 343 447.3 385.8 448.7C428.7 450 471.3 416 514.2 400.3C557 384.7 600 387.3 642.8 406.5C685.7 425.7 728.3 461.3 771.2 469.3C814 477.3 857 457.7 878.5 447.8L900 438L900 601L878.5 601C857 601 814 601 771.2 601C728.3 601 685.7 601 642.8 601C600 601 557 601 514.2 601C471.3 601 428.7 601 385.8 601C343 601 300 601 257.2 601C214.3 601 171.7 601 128.8 601C86 601 43 601 21.5 601L0 601Z" fill="black" stroke-linecap="round" stroke-linejoin="miter"></path></svg>