<svg id="visual" viewBox="0 0 900 100" width="900" height="100" xmlns="http://www.w3.org/2000/svg" xmlns:xlink="http://www.w3.org/1999/xlink" version="1.1"><rect x="0" y="0" width="900" height="100" fill="#EAF2EF"></rect><path d="M0 49L13.7 53.5C27.3 58 54.7 67 82 72.7C109.3 78.3 136.7 80.7 163.8 78.2C191 75.7 218 68.3 245.2 61.3C272.3 54.3 299.7 47.7 327 43.2C354.3 38.7 381.7 36.3 409 39.3C436.3 42.3 463.7 50.7 491 54.8C518.3 59 545.7 59 573 60.2C600.3 61.3 627.7 63.7 654.8 65.8C682 68 709 70 736.2 72C763.3 74 790.7 76 818 67.3C845.3 58.7 872.7 39.3 886.3 29.7L900 20L900 101L886.3 101C872.7 101 845.3 101 818 101C790.7 101 763.3 101 736.2 101C709 101 682 101 654.8 101C627.7 101 600.3 101 573 101C545.7 101 518.3 101 491 101C463.7 101 436.3 101 409 101C381.7 101 354.3 101 327 101C299.7 101 272.3 101 245.2 101C218 101 191 101 163.8 101C136.7 101 109.3 101 82 101C54.7 101 27.3 101 13.7 101L0 101Z" fill="black" stroke-linecap="round" stroke-linejoin="miter"></path></svg>