<svg id="visual" viewBox="0 0 900 600" width="900" height="600" xmlns="http://www.w3.org/2000/svg" xmlns:xlink="http://www.w3.org/1999/xlink" version="1.1"><rect x="0" y="0" width="900" height="600" fill="#EAF2EF"></rect><path d="M0 347L21.5 361.8C43 376.7 86 406.3 128.8 373.5C171.7 340.7 214.3 245.3 257.2 234.3C300 223.3 343 296.7 385.8 299.2C428.7 301.7 471.3 233.3 514.2 201.8C557 170.3 600 175.7 642.8 214.2C685.7 252.7 728.3 324.3 771.2 340.5C814 356.7 857 317.3 878.5 297.7L900 278L900 601L878.5 601C857 601 814 601 771.2 601C728.3 601 685.7 601 642.8 601C600 601 557 601 514.2 601C471.3 601 428.7 601 385.8 601C343 601 300 601 257.2 601C214.3 601 171.7 601 128.8 601C86 601 43 601 21.5 601L0 601Z" fill="black" stroke-linecap="round" stroke-linejoin="miter"></path></svg>