<svg id="visual" viewBox="0 0 20 10" width="20" height="10" xmlns="http://www.w3.org/2000/svg" xmlns:xlink="http://www.w3.org/1999/xlink" version="1.1"><rect x="0" y="0" width="20" height="10" fill="#EAF2EF"></rect><path d="M0 5L0.5 4.8C1 4.7 2 4.3 3 3.8C4 3.3 5 2.7 6 2.8C7 3 8 4 8.8 4.2C9.7 4.3 10.3 3.7 11.2 3.7C12 3.7 13 4.3 14 4.7C15 5 16 5 17 4.5C18 4 19 3 19.5 2.5L20 2L20 11L19.5 11C19 11 18 11 17 11C16 11 15 11 14 11C13 11 12 11 11.2 11C10.3 11 9.7 11 8.8 11C8 11 7 11 6 11C5 11 4 11 3 11C2 11 1 11 0.5 11L0 11Z" fill="black" stroke-linecap="round" stroke-linejoin="miter"></path></svg>