<svg id="visual" viewBox="0 0 900 600" width="900" height="600" xmlns="http://www.w3.org/2000/svg" xmlns:xlink="http://www.w3.org/1999/xlink" version="1.1"><rect x="0" y="0" width="900" height="600" fill="#EAF2EF"></rect><path d="M0 366L21.5 368.3C43 370.7 86 375.3 128.8 385.3C171.7 395.3 214.3 410.7 257.2 407.3C300 404 343 382 385.8 373.3C428.7 364.7 471.3 369.3 514.2 375.5C557 381.7 600 389.3 642.8 390.8C685.7 392.3 728.3 387.7 771.2 385.3C814 383 857 383 878.5 383L900 383L900 601L878.5 601C857 601 814 601 771.2 601C728.3 601 685.7 601 642.8 601C600 601 557 601 514.2 601C471.3 601 428.7 601 385.8 601C343 601 300 601 257.2 601C214.3 601 171.7 601 128.8 601C86 601 43 601 21.5 601L0 601Z" fill="#912f56"></path><path d="M0 451L21.5 455C43 459 86 467 128.8 461.5C171.7 456 214.3 437 257.2 430.5C300 424 343 430 385.8 431.7C428.7 433.3 471.3 430.7 514.2 424.8C557 419 600 410 642.8 415C685.7 420 728.3 439 771.2 450.5C814 462 857 466 878.5 468L900 470L900 601L878.5 601C857 601 814 601 771.2 601C728.3 601 685.7 601 642.8 601C600 601 557 601 514.2 601C471.3 601 428.7 601 385.8 601C343 601 300 601 257.2 601C214.3 601 171.7 601 128.8 601C86 601 43 601 21.5 601L0 601Z" fill="#812953"></path><path d="M0 462L21.5 467.3C43 472.7 86 483.3 128.8 485C171.7 486.7 214.3 479.3 257.2 474.5C300 469.7 343 467.3 385.8 464.3C428.7 461.3 471.3 457.7 514.2 462.8C557 468 600 482 642.8 483.3C685.7 484.7 728.3 473.3 771.2 464.3C814 455.3 857 448.7 878.5 445.3L900 442L900 601L878.5 601C857 601 814 601 771.2 601C728.3 601 685.7 601 642.8 601C600 601 557 601 514.2 601C471.3 601 428.7 601 385.8 601C343 601 300 601 257.2 601C214.3 601 171.7 601 128.8 601C86 601 43 601 21.5 601L0 601Z" fill="#71234f"></path><path d="M0 530L21.5 525.7C43 521.3 86 512.7 128.8 507.8C171.7 503 214.3 502 257.2 502.2C300 502.3 343 503.7 385.8 508.2C428.7 512.7 471.3 520.3 514.2 521.3C557 522.3 600 516.7 642.8 515.3C685.7 514 728.3 517 771.2 517.8C814 518.7 857 517.3 878.5 516.7L900 516L900 601L878.5 601C857 601 814 601 771.2 601C728.3 601 685.7 601 642.8 601C600 601 557 601 514.2 601C471.3 601 428.7 601 385.8 601C343 601 300 601 257.2 601C214.3 601 171.7 601 128.8 601C86 601 43 601 21.5 601L0 601Z" fill="#611e4a"></path><path d="M0 571L21.5 566.2C43 561.3 86 551.7 128.8 547.8C171.7 544 214.3 546 257.2 548.5C300 551 343 554 385.8 550.8C428.7 547.7 471.3 538.3 514.2 537C557 535.7 600 542.3 642.8 544.7C685.7 547 728.3 545 771.2 541.8C814 538.7 857 534.3 878.5 532.2L900 530L900 601L878.5 601C857 601 814 601 771.2 601C728.3 601 685.7 601 642.8 601C600 601 557 601 514.2 601C471.3 601 428.7 601 385.8 601C343 601 300 601 257.2 601C214.3 601 171.7 601 128.8 601C86 601 43 601 21.5 601L0 601Z" fill="#521945"></path></svg>