<svg id="visual" viewBox="0 0 400 100" width="400" height="100" xmlns="http://www.w3.org/2000/svg" xmlns:xlink="http://www.w3.org/1999/xlink" version="1.1"><rect x="0" y="0" width="400" height="100" fill="#EAF2EF"></rect><path d="M0 49L6 53.5C12 58 24 67 36.2 72.7C48.3 78.3 60.7 80.7 72.8 78.2C85 75.7 97 68.3 109 61.3C121 54.3 133 47.7 145.2 43.2C157.3 38.7 169.7 36.3 181.8 39.3C194 42.3 206 50.7 218.2 54.8C230.3 59 242.7 59 254.8 60.2C267 61.3 279 63.7 291 65.8C303 68 315 70 327.2 72C339.3 74 351.7 76 363.8 67.3C376 58.7 388 39.3 394 29.7L400 20L400 101L394 101C388 101 376 101 363.8 101C351.7 101 339.3 101 327.2 101C315 101 303 101 291 101C279 101 267 101 254.8 101C242.7 101 230.3 101 218.2 101C206 101 194 101 181.8 101C169.7 101 157.3 101 145.2 101C133 101 121 101 109 101C97 101 85 101 72.8 101C60.7 101 48.3 101 36.2 101C24 101 12 101 6 101L0 101Z" fill="#912F56" stroke-linecap="round" stroke-linejoin="miter"></path></svg>