<svg id="visual" viewBox="0 0 900 600" width="900" height="600" xmlns="http://www.w3.org/2000/svg" xmlns:xlink="http://www.w3.org/1999/xlink" version="1.1"><rect x="0" y="0" width="900" height="600" fill="#EAF2EF"></rect><path d="M0 420L16.7 427.7C33.3 435.3 66.7 450.7 100 453.7C133.3 456.7 166.7 447.3 200 440.8C233.3 434.3 266.7 430.7 300 444C333.3 457.3 366.7 487.7 400 493C433.3 498.3 466.7 478.7 500 465.5C533.3 452.3 566.7 445.7 600 455.7C633.3 465.7 666.7 492.3 700 504.8C733.3 517.3 766.7 515.7 800 505.5C833.3 495.3 866.7 476.7 883.3 467.3L900 458L900 601L883.3 601C866.7 601 833.3 601 800 601C766.7 601 733.3 601 700 601C666.7 601 633.3 601 600 601C566.7 601 533.3 601 500 601C466.7 601 433.3 601 400 601C366.7 601 333.3 601 300 601C266.7 601 233.3 601 200 601C166.7 601 133.3 601 100 601C66.7 601 33.3 601 16.7 601L0 601Z" fill="#912F56" stroke-linecap="round" stroke-linejoin="miter"></path></svg>