<svg id="visual" viewBox="0 0 900 450" width="900" height="450" xmlns="http://www.w3.org/2000/svg" xmlns:xlink="http://www.w3.org/1999/xlink" version="1.1"><path d="M0 96L13.7 86.2C27.3 76.3 54.7 56.7 82 49.8C109.3 43 136.7 49 163.8 54.3C191 59.7 218 64.3 245.2 66.7C272.3 69 299.7 69 327 72.7C354.3 76.3 381.7 83.7 409 87.3C436.3 91 463.7 91 491 81.3C518.3 71.7 545.7 52.3 573 44.2C600.3 36 627.7 39 654.8 39.7C682 40.3 709 38.7 736.2 43.8C763.3 49 790.7 61 818 68.5C845.3 76 872.7 79 886.3 80.5L900 82L900 0L886.3 0C872.7 0 845.3 0 818 0C790.7 0 763.3 0 736.2 0C709 0 682 0 654.8 0C627.7 0 600.3 0 573 0C545.7 0 518.3 0 491 0C463.7 0 436.3 0 409 0C381.7 0 354.3 0 327 0C299.7 0 272.3 0 245.2 0C218 0 191 0 163.8 0C136.7 0 109.3 0 82 0C54.7 0 27.3 0 13.7 0L0 0Z" fill="#6198ff"></path><path d="M0 154L13.7 166C27.3 178 54.7 202 82 204.3C109.3 206.7 136.7 187.3 163.8 172.3C191 157.3 218 146.7 245.2 144.3C272.3 142 299.7 148 327 159.3C354.3 170.7 381.7 187.3 409 206.2C436.3 225 463.7 246 491 236.2C518.3 226.3 545.7 185.7 573 182.7C600.3 179.7 627.7 214.3 654.8 222.7C682 231 709 213 736.2 212.2C763.3 211.3 790.7 227.7 818 232.2C845.3 236.7 872.7 229.3 886.3 225.7L900 222L900 80L886.3 78.5C872.7 77 845.3 74 818 66.5C790.7 59 763.3 47 736.2 41.8C709 36.7 682 38.3 654.8 37.7C627.7 37 600.3 34 573 42.2C545.7 50.3 518.3 69.7 491 79.3C463.7 89 436.3 89 409 85.3C381.7 81.7 354.3 74.3 327 70.7C299.7 67 272.3 67 245.2 64.7C218 62.3 191 57.7 163.8 52.3C136.7 47 109.3 41 82 47.8C54.7 54.7 27.3 74.3 13.7 84.2L0 94Z" fill="#3c80ff"></path><path d="M0 321L13.7 324C27.3 327 54.7 333 82 338.2C109.3 343.3 136.7 347.7 163.8 342.3C191 337 218 322 245.2 321.3C272.3 320.7 299.7 334.3 327 345.7C354.3 357 381.7 366 409 365.2C436.3 364.3 463.7 353.7 491 344.7C518.3 335.7 545.7 328.3 573 329.8C600.3 331.3 627.7 341.7 654.8 341.7C682 341.7 709 331.3 736.2 323.8C763.3 316.3 790.7 311.7 818 313.2C845.3 314.7 872.7 322.3 886.3 326.2L900 330L900 220L886.3 223.7C872.7 227.3 845.3 234.7 818 230.2C790.7 225.7 763.3 209.3 736.2 210.2C709 211 682 229 654.8 220.7C627.7 212.3 600.3 177.7 573 180.7C545.7 183.7 518.3 224.3 491 234.2C463.7 244 436.3 223 409 204.2C381.7 185.3 354.3 168.7 327 157.3C299.7 146 272.3 140 245.2 142.3C218 144.7 191 155.3 163.8 170.3C136.7 185.3 109.3 204.7 82 202.3C54.7 200 27.3 176 13.7 164L0 152Z" fill="#0066ff"></path><path d="M0 402L13.7 398.2C27.3 394.3 54.7 386.7 82 388.2C109.3 389.7 136.7 400.3 163.8 400.3C191 400.3 218 389.7 245.2 385.2C272.3 380.7 299.7 382.3 327 387.7C354.3 393 381.7 402 409 405.7C436.3 409.3 463.7 407.7 491 409.8C518.3 412 545.7 418 573 420.3C600.3 422.7 627.7 421.3 654.8 419.8C682 418.3 709 416.7 736.2 417.3C763.3 418 790.7 421 818 422.5C845.3 424 872.7 424 886.3 424L900 424L900 328L886.3 324.2C872.7 320.3 845.3 312.7 818 311.2C790.7 309.7 763.3 314.3 736.2 321.8C709 329.3 682 339.7 654.8 339.7C627.7 339.7 600.3 329.3 573 327.8C545.7 326.3 518.3 333.7 491 342.7C463.7 351.7 436.3 362.3 409 363.2C381.7 364 354.3 355 327 343.7C299.7 332.3 272.3 318.7 245.2 319.3C218 320 191 335 163.8 340.3C136.7 345.7 109.3 341.3 82 336.2C54.7 331 27.3 325 13.7 322L0 319Z" fill="#0059dd"></path><path d="M0 451L13.7 451C27.3 451 54.7 451 82 451C109.3 451 136.7 451 163.8 451C191 451 218 451 245.2 451C272.3 451 299.7 451 327 451C354.3 451 381.7 451 409 451C436.3 451 463.7 451 491 451C518.3 451 545.7 451 573 451C600.3 451 627.7 451 654.8 451C682 451 709 451 736.2 451C763.3 451 790.7 451 818 451C845.3 451 872.7 451 886.3 451L900 451L900 422L886.3 422C872.7 422 845.3 422 818 420.5C790.7 419 763.3 416 736.2 415.3C709 414.7 682 416.3 654.8 417.8C627.7 419.3 600.3 420.7 573 418.3C545.7 416 518.3 410 491 407.8C463.7 405.7 436.3 407.3 409 403.7C381.7 400 354.3 391 327 385.7C299.7 380.3 272.3 378.7 245.2 383.2C218 387.7 191 398.3 163.8 398.3C136.7 398.3 109.3 387.7 82 386.2C54.7 384.7 27.3 392.3 13.7 396.2L0 400Z" fill="#004cbb"></path></svg>